<svg xmlns="http://www.w3.org/2000/svg" viewBox="0 0 512 512">
  <defs>
    <!-- Gradient pour le fond -->
    <linearGradient id="bgGrad" x1="0%" y1="0%" x2="100%" y2="100%">
      <stop offset="0%" style="stop-color:#1e3a5f"/>
      <stop offset="100%" style="stop-color:#0f172a"/>
    </linearGradient>
    <!-- Gradient pour les nodes -->
    <linearGradient id="nodeGrad" x1="0%" y1="0%" x2="0%" y2="100%">
      <stop offset="0%" style="stop-color:#3b82f6"/>
      <stop offset="100%" style="stop-color:#1d4ed8"/>
    </linearGradient>
    <!-- Gradient pour le node central -->
    <linearGradient id="centerGrad" x1="0%" y1="0%" x2="0%" y2="100%">
      <stop offset="0%" style="stop-color:#22c55e"/>
      <stop offset="100%" style="stop-color:#15803d"/>
    </linearGradient>
    <!-- Glow effect -->
    <filter id="glow" x="-50%" y="-50%" width="200%" height="200%">
      <feGaussianBlur stdDeviation="8" result="coloredBlur"/>
      <feMerge>
        <feMergeNode in="coloredBlur"/>
        <feMergeNode in="SourceGraphic"/>
      </feMerge>
    </filter>
  </defs>

  <!-- Fond arrondi -->
  <rect x="16" y="16" width="480" height="480" rx="96" fill="url(#bgGrad)"/>

  <!-- Connexions (edges) -->
  <g stroke="#475569" stroke-width="6" stroke-linecap="round" opacity="0.8">
    <!-- Du centre vers les corners -->
    <line x1="256" y1="256" x2="128" y2="128"/>
    <line x1="256" y1="256" x2="384" y2="128"/>
    <line x1="256" y1="256" x2="128" y2="384"/>
    <line x1="256" y1="256" x2="384" y2="384"/>
    <!-- Connexions horizontales -->
    <line x1="128" y1="128" x2="384" y2="128" stroke-dasharray="12,8"/>
    <line x1="128" y1="384" x2="384" y2="384" stroke-dasharray="12,8"/>
  </g>

  <!-- Nodes satellites (VMs/Containers) -->
  <g filter="url(#glow)">
    <!-- Top-left -->
    <rect x="88" y="88" width="80" height="80" rx="16" fill="url(#nodeGrad)"/>
    <rect x="104" y="108" width="48" height="8" rx="2" fill="#93c5fd"/>
    <rect x="104" y="124" width="32" height="8" rx="2" fill="#93c5fd" opacity="0.6"/>
    <rect x="104" y="140" width="40" height="8" rx="2" fill="#93c5fd" opacity="0.4"/>

    <!-- Top-right -->
    <rect x="344" y="88" width="80" height="80" rx="16" fill="url(#nodeGrad)"/>
    <rect x="360" y="108" width="48" height="8" rx="2" fill="#93c5fd"/>
    <rect x="360" y="124" width="32" height="8" rx="2" fill="#93c5fd" opacity="0.6"/>
    <rect x="360" y="140" width="40" height="8" rx="2" fill="#93c5fd" opacity="0.4"/>

    <!-- Bottom-left -->
    <rect x="88" y="344" width="80" height="80" rx="16" fill="url(#nodeGrad)"/>
    <rect x="104" y="364" width="48" height="8" rx="2" fill="#93c5fd"/>
    <rect x="104" y="380" width="32" height="8" rx="2" fill="#93c5fd" opacity="0.6"/>
    <rect x="104" y="396" width="40" height="8" rx="2" fill="#93c5fd" opacity="0.4"/>

    <!-- Bottom-right -->
    <rect x="344" y="344" width="80" height="80" rx="16" fill="url(#nodeGrad)"/>
    <rect x="360" y="364" width="48" height="8" rx="2" fill="#93c5fd"/>
    <rect x="360" y="380" width="32" height="8" rx="2" fill="#93c5fd" opacity="0.6"/>
    <rect x="360" y="396" width="40" height="8" rx="2" fill="#93c5fd" opacity="0.4"/>
  </g>

  <!-- Node central (Backend/Hub) -->
  <g filter="url(#glow)">
    <circle cx="256" cy="256" r="56" fill="url(#centerGrad)"/>
    <!-- Icône réseau stylisée -->
    <circle cx="256" cy="240" r="12" fill="white" opacity="0.9"/>
    <circle cx="240" cy="268" r="8" fill="white" opacity="0.7"/>
    <circle cx="272" cy="268" r="8" fill="white" opacity="0.7"/>
    <line x1="256" y1="252" x2="244" y2="262" stroke="white" stroke-width="3" opacity="0.8"/>
    <line x1="256" y1="252" x2="268" y2="262" stroke="white" stroke-width="3" opacity="0.8"/>
  </g>
</svg>
